<?xml version="1.0" encoding="UTF-8" standalone="no"?>
<!DOCTYPE svg PUBLIC "-//W3C//DTD SVG 1.1//EN" "http://www.w3.org/Graphics/SVG/1.1/DTD/svg11.dtd">
<svg width="100%" height="100%" viewBox="0 0 62 50" version="1.1" xmlns="http://www.w3.org/2000/svg" xmlns:xlink="http://www.w3.org/1999/xlink" xml:space="preserve" xmlns:serif="http://www.serif.com/" style="fill-rule:evenodd;clip-rule:evenodd;stroke-linejoin:round;stroke-miterlimit:2;">
    <g transform="matrix(1,0,0,1,-46.7878,-22.1053)">
        <g>
            <g transform="matrix(-0.723425,0,0.270052,1.00785,118.206,-7.11793)">
                <path d="M63.36,32.743C63.36,31.849 62.739,30.894 61.68,30.16C60.621,29.426 59.245,28.996 57.956,28.996C54.097,28.996 49.037,28.996 45.807,28.996C43.93,28.996 42.625,29.901 42.625,31.202C42.625,38.964 42.625,65.072 42.625,74.859C42.625,75.753 43.246,76.708 44.305,77.442C45.364,78.176 46.74,78.606 48.03,78.606C51.889,78.606 56.949,78.606 60.178,78.606C62.055,78.606 63.36,77.701 63.36,76.4C63.36,68.638 63.36,42.53 63.36,32.743Z" style="fill:rgb(85,0,255);"/>
            </g>
            <g transform="matrix(-0.723425,0,0.221417,0.82634,99.6013,-1.85499)">
                <path d="M63.36,33.566C63.36,32.476 62.739,31.311 61.68,30.416C60.621,29.521 59.245,28.996 57.956,28.996C54.097,28.996 49.037,28.996 45.807,28.996C43.93,28.996 42.625,30.099 42.625,31.687C42.625,39.768 42.625,63.895 42.625,74.036C42.625,75.126 43.246,76.291 44.305,77.186C45.364,78.081 46.74,78.606 48.03,78.606C51.889,78.606 56.949,78.606 60.178,78.606C62.055,78.606 63.36,77.503 63.36,75.915C63.36,67.834 63.36,43.707 63.36,33.566Z" style="fill:rgb(85,0,255);"/>
            </g>
            <g transform="matrix(0.723425,0,-0.270052,1.00785,37.1794,-7.11793)">
                <path d="M63.36,32.743C63.36,31.849 62.739,30.894 61.68,30.16C60.621,29.426 59.245,28.996 57.956,28.996C54.097,28.996 49.037,28.996 45.807,28.996C43.93,28.996 42.625,29.901 42.625,31.202C42.625,38.964 42.625,65.072 42.625,74.859C42.625,75.753 43.246,76.708 44.305,77.442C45.364,78.176 46.74,78.606 48.03,78.606C51.889,78.606 56.949,78.606 60.178,78.606C62.055,78.606 63.36,77.701 63.36,76.4C63.36,68.638 63.36,42.53 63.36,32.743Z" style="fill:rgb(85,0,255);"/>
            </g>
        </g>
    </g>
</svg>
